<?xml version="1.0" encoding="utf-8"?>
<svg width="30%" height="30%" viewBox="0 0 328.025 146.84" version="1.1" style="fill-rule:evenodd;clip-rule:evenodd;stroke-linejoin:round;stroke-miterlimit:1.41421;" xmlns="http://www.w3.org/2000/svg">
  <g style="" transform="matrix(0.350484, 0, 0, 0.350484, -0.000285, 0.000001)">
    <g transform="matrix(4.16667,0,0,4.16667,235.854,204.438)">
      <path d="M0,1.272L42.641,0.636L0.644,0.009L39.859,-15.036L-0.395,-0.956L29.306,-31.558L-0.833,-2.304L16.257,-40.672L-2.25,-2.251L-2.887,-44.892L-3.514,-2.895L-18.559,-42.11L-4.478,-1.856L-35.08,-31.558L-5.827,-1.418L-44.194,-18.508L-5.774,-0.001L-48.415,0.636L-6.418,1.262L-45.633,16.307L-5.378,2.227L-35.08,32.829L-4.94,3.575L-22.031,41.943L-3.523,3.522L-2.887,46.164L-2.26,4.166L12.785,43.381L-1.296,3.127L29.306,32.829L0.053,2.689L38.421,19.779L0,1.272Z" style="fill:rgb(226,64,64);fill-rule:nonzero;"/>
    </g>
    <g transform="matrix(4.16667,0,0,4.16667,289.375,267.129)">
      <path d="M0,14.636L3.664,-2.527L0.863,-2.527L-3.348,17.163L11.898,17.163L12.456,14.636L0,14.636Z" style="fill-rule:nonzero;"/>
    </g>
    <g transform="matrix(4.16667,0,0,4.16667,368.084,291.309)">
      <path d="M0,3.032L5.212,-4.233L7.223,3.032L0,3.032ZM7.191,-8.329L5.001,-8.329L-7.276,8.834L-9.087,11.361L-5.938,11.361L-1.832,5.559L7.886,5.559L9.487,11.361L12.551,11.361L7.191,-8.329Z" style="fill-rule:nonzero;"/>
    </g>
    <g transform="matrix(4.16667,0,0,4.16667,502.459,309.646)">
      <path d="M0,-5.76C0.137,-6.434 0.211,-7.076 0.211,-7.676C0.211,-11.183 -2.316,-12.93 -7.36,-12.93C-13.014,-12.93 -16.215,-11.151 -16.973,-7.592C-17.047,-7.245 -17.089,-6.908 -17.089,-6.602C-17.089,-5.17 -16.352,-4.065 -14.878,-3.286C-14.035,-2.843 -12.403,-2.37 -9.95,-1.864C-7.897,-1.443 -6.591,-1.148 -6.054,-0.99C-5.275,-0.759 -4.717,-0.506 -4.38,-0.243C-4.043,0.031 -3.864,0.41 -3.864,0.894C-3.864,1.084 -3.896,1.316 -3.959,1.589C-4.191,2.632 -4.98,3.421 -6.317,3.937C-7.455,4.411 -8.866,4.643 -10.54,4.643C-14.593,4.643 -16.615,3.537 -16.615,1.326C-16.615,1 -16.583,0.652 -16.499,0.284L-16.236,-0.906L-19.037,-0.906L-19.3,0.368C-19.416,0.915 -19.468,1.421 -19.468,1.884C-19.468,3.8 -18.573,5.201 -16.762,6.096C-15.33,6.812 -13.435,7.17 -11.087,7.17C-8.834,7.17 -6.844,6.78 -5.096,6.001C-2.896,5.022 -1.6,3.569 -1.19,1.652C-1.095,1.242 -1.042,0.842 -1.042,0.452C-1.042,-0.896 -1.6,-1.927 -2.706,-2.633C-3.812,-3.338 -6.107,-4.002 -9.603,-4.602C-11.371,-4.907 -12.582,-5.244 -13.246,-5.602C-13.898,-5.96 -14.235,-6.444 -14.235,-7.066C-14.235,-7.224 -14.214,-7.392 -14.172,-7.592C-13.772,-9.466 -11.677,-10.403 -7.918,-10.403C-5.959,-10.403 -4.549,-10.151 -3.696,-9.656C-2.98,-9.224 -2.622,-8.445 -2.622,-7.297C-2.622,-6.855 -2.653,-6.339 -2.738,-5.76L0,-5.76Z" style="fill-rule:nonzero;"/>
    </g>
    <g transform="matrix(4.16667,0,0,4.16667,516.542,338.642)">
      <path d="M0,-19.689L-4.222,0L12.256,0L12.803,-2.526L-0.905,-2.526L0.463,-8.97L12.488,-8.97L13.046,-11.497L1.021,-11.497L2.211,-17.162L15.773,-17.162L16.331,-19.689L0,-19.689Z" style="fill-rule:nonzero;"/>
    </g>
    <g transform="matrix(4.16667,0,0,4.16667,629.688,338.642)">
      <path d="M0,-19.689L-10.15,-19.689L-10.687,-17.162L-0.463,-17.162C2.316,-17.162 3.706,-16.404 3.706,-14.898C3.706,-14.667 3.675,-14.414 3.611,-14.14C3.38,-13.014 2.706,-12.161 1.579,-11.582C0.548,-11.066 -0.748,-10.802 -2.295,-10.802L-12.056,-10.802L-14.372,0L-11.582,0L-9.803,-8.244L-2.706,-8.244C0.116,-8.244 1.516,-7.486 1.516,-5.98C1.516,-5.748 1.485,-5.496 1.432,-5.222L0.295,0L3.085,0L4.222,-5.306C4.328,-5.759 4.37,-6.18 4.37,-6.591C4.37,-7.886 3.885,-8.897 2.917,-9.613C4.822,-10.613 5.991,-12.15 6.433,-14.224C6.539,-14.677 6.581,-15.098 6.581,-15.509C6.581,-18.289 4.391,-19.689 0,-19.689" style="fill-rule:nonzero;"/>
    </g>
    <g transform="matrix(4.16667,0,0,4.16667,697.251,266.3)">
      <path d="M0,15.046C-2.537,15.046 -4.401,14.362 -5.58,13.014C-6.402,12.066 -6.812,10.877 -6.812,9.466C-6.812,8.865 -6.739,8.223 -6.602,7.549C-6.096,5.243 -4.938,3.411 -3.127,2.043C-1.316,0.684 0.905,0 3.527,0C5.138,0 6.423,0.242 7.402,0.737C8.371,1.232 9.15,2.064 9.761,3.222L12.435,1.8C11.582,0.232 10.455,-0.895 9.055,-1.569C7.76,-2.211 6.096,-2.527 4.085,-2.527C0.642,-2.527 -2.295,-1.611 -4.738,0.232C-7.181,2.074 -8.739,4.548 -9.402,7.665C-9.592,8.476 -9.687,9.266 -9.687,10.013C-9.687,12.382 -8.876,14.225 -7.244,15.562C-5.612,16.899 -3.359,17.573 -0.495,17.573C3.348,17.573 6.781,16.12 9.782,13.214L7.718,11.793C5.507,13.962 2.938,15.046 0,15.046" style="fill-rule:nonzero;"/>
    </g>
    <g transform="matrix(4.16667,0,0,4.16667,821.359,339.521)">
      <path d="M0,-19.9L-0.547,-17.373L-2.622,-7.697C-3.338,-4.254 -5.802,-2.527 -9.992,-2.527C-13.562,-2.527 -15.341,-3.759 -15.341,-6.223C-15.341,-6.707 -15.288,-7.223 -15.172,-7.792L-12.582,-19.9L-15.372,-19.9L-17.963,-7.792C-18.142,-6.96 -18.226,-6.202 -18.226,-5.517C-18.226,-1.843 -15.657,0 -10.508,0C-7.581,0 -5.243,-0.59 -3.496,-1.779C-1.611,-3.074 -0.379,-5.054 0.2,-7.728L2.253,-17.373L2.79,-19.9L0,-19.9Z" style="fill-rule:nonzero;"/>
    </g>
    <g transform="matrix(4.16667,0,0,4.16667,821.359,338.642)">
      <path d="M0,-19.689L-0.547,-17.162L9.95,-17.162L6.286,0L9.076,0L12.751,-17.162L20.29,-17.162L20.837,-19.689L0,-19.689Z" style="fill-rule:nonzero;"/>
    </g>
    <g transform="matrix(4.16667,0,0,4.16667,200.479,194.592)">
      <path d="M0,-24.811C-0.374,-22.887 -1.698,-3.419 -1.698,-3.419L-44.721,-1.724L1.721,0C1.721,0 0.374,-22.887 0,-24.811" style="fill-rule:nonzero;"/>
    </g>
    <g transform="matrix(4.16667,0,0,4.16667,105.354,412.534)">
      <path d="M0,-43C1.924,-42.626 21.392,-41.302 21.392,-41.302L23.087,1.721L24.811,-44.721C24.811,-44.721 1.924,-43.374 0,-43" style="fill-rule:nonzero;"/>
    </g>
    <g transform="matrix(4.16667,0,0,4.16667,342.638,7.17084)">
      <path d="M0,43C-1.924,42.626 -21.392,41.302 -21.392,41.302L-23.087,-1.721L-24.811,44.721C-24.811,44.721 -1.924,43.374 0,43" style="fill-rule:nonzero;"/>
    </g>
    <g transform="matrix(0.295487,-4.15618,-4.15618,-0.295487,608.15,612.355)">
      <path d="M59.176,90.99L83.275,90.99L96.09,-65.361L86.443,94.643L59.176,90.99Z" style="fill-rule:nonzero;"/>
    </g>
    <g transform="matrix(4.16667,0,0,4.16667,136.158,7.29167)">
      <path d="M0,92.035C0,92.035 -0.484,91.861 -1.392,91.534C-1.846,91.371 -2.406,91.17 -3.064,90.933C-3.726,90.706 -4.442,90.331 -5.269,89.973C-6.095,89.611 -7.007,89.201 -7.945,88.65C-8.892,88.117 -9.952,87.598 -10.982,86.874C-12.034,86.187 -13.168,85.474 -14.26,84.577C-14.815,84.142 -15.4,83.713 -15.97,83.241C-16.52,82.744 -17.083,82.236 -17.658,81.718C-17.946,81.458 -18.236,81.196 -18.53,80.931C-18.802,80.644 -19.077,80.355 -19.354,80.062C-19.909,79.477 -20.474,78.88 -21.048,78.274C-22.082,76.962 -23.254,75.681 -24.217,74.182C-25.279,72.751 -26.167,71.152 -27.107,69.537C-27.927,67.86 -28.826,66.167 -29.474,64.332C-30.881,60.715 -31.931,56.793 -32.342,52.721C-32.509,51.71 -32.534,50.683 -32.585,49.654L-32.66,48.109L-32.678,47.722L-32.664,47.316L-32.634,46.548L-32.513,43.47C-32.423,42.439 -32.25,41.399 -32.121,40.363L-31.91,38.806L-31.559,37.286C-31.313,36.275 -31.114,35.252 -30.829,34.255C-30.162,32.291 -29.589,30.296 -28.688,28.445C-27.935,26.528 -26.876,24.781 -25.913,23.012C-25.397,22.147 -24.802,21.339 -24.255,20.509L-23.422,19.277C-23.123,18.885 -22.803,18.511 -22.496,18.129C-21.876,17.371 -21.26,16.619 -20.65,15.874C-19.978,15.185 -19.311,14.503 -18.652,13.828C-18.321,13.491 -17.991,13.157 -17.664,12.824C-17.309,12.521 -16.957,12.219 -16.606,11.919C-15.905,11.319 -15.212,10.726 -14.528,10.142C-13.796,9.618 -13.074,9.102 -12.363,8.594C-11.647,8.091 -10.962,7.564 -10.213,7.165C-8.739,6.331 -7.366,5.423 -5.91,4.816C-5.197,4.483 -4.499,4.158 -3.816,3.839C-3.142,3.5 -2.425,3.312 -1.757,3.051C-0.406,2.569 0.865,2.069 2.119,1.8C3.364,1.505 4.51,1.129 5.605,0.962C6.7,0.788 7.706,0.628 8.614,0.483C8.842,0.447 9.063,0.412 9.278,0.378L9.438,0.353L9.646,0.34L9.951,0.322C10.351,0.298 10.726,0.276 11.075,0.255C11.774,0.214 12.368,0.178 12.849,0.15C13.813,0.093 14.326,0.062 14.326,0.062L15.377,0L15.486,2.12L14.434,2.165C14.434,2.165 13.92,2.187 12.956,2.229C12.474,2.25 11.88,2.276 11.181,2.306C10.832,2.321 10.456,2.337 10.055,2.355L9.75,2.368L9.646,2.371L9.493,2.393C9.286,2.422 9.074,2.453 8.856,2.484C7.984,2.609 7.018,2.746 5.966,2.896C4.913,3.038 3.811,3.384 2.611,3.647C1.402,3.883 0.177,4.347 -1.129,4.788C-1.774,5.03 -2.469,5.197 -3.121,5.514C-3.782,5.81 -4.459,6.113 -5.15,6.422C-6.562,6.981 -7.895,7.838 -9.33,8.618C-10.06,8.989 -10.727,9.489 -11.425,9.963C-12.12,10.442 -12.825,10.929 -13.54,11.423C-14.21,11.978 -14.888,12.54 -15.575,13.109C-15.919,13.393 -16.265,13.68 -16.613,13.967C-16.935,14.284 -17.258,14.603 -17.583,14.923C-18.233,15.567 -18.889,16.217 -19.551,16.873C-20.153,17.586 -20.761,18.305 -21.374,19.031C-21.677,19.396 -21.994,19.754 -22.29,20.13L-23.117,21.311C-23.659,22.109 -24.252,22.884 -24.766,23.716C-25.727,25.42 -26.787,27.102 -27.548,28.955C-28.456,30.743 -29.042,32.677 -29.725,34.583C-30.019,35.551 -30.227,36.546 -30.484,37.529L-30.852,39.009L-31.078,40.509C-31.219,41.512 -31.405,42.504 -31.511,43.517L-31.681,46.593L-31.723,47.36L-31.742,47.721L-31.73,48.101L-31.68,49.617C-31.647,50.627 -31.64,51.637 -31.491,52.631C-31.151,56.635 -30.181,60.509 -28.851,64.096C-28.242,65.916 -27.381,67.598 -26.599,69.269C-25.695,70.877 -24.842,72.474 -23.814,73.905C-22.886,75.405 -21.745,76.69 -20.741,78.008C-20.181,78.619 -19.63,79.219 -19.09,79.809C-18.819,80.103 -18.55,80.395 -18.285,80.684C-17.998,80.951 -17.714,81.216 -17.432,81.478C-16.87,82.003 -16.318,82.516 -15.78,83.018C-15.22,83.497 -14.646,83.931 -14.101,84.373C-13.03,85.283 -11.913,86.01 -10.876,86.711C-9.861,87.449 -8.815,87.982 -7.879,88.529C-6.951,89.094 -6.05,89.516 -5.233,89.891C-4.413,90.26 -3.705,90.646 -3.046,90.884C-2.392,91.131 -1.835,91.342 -1.384,91.512C-0.481,91.853 0,92.035 0,92.035" style="fill-rule:nonzero;"/>
    </g>
  </g>
</svg>